<svg width="181" height="93" viewBox="0 0 181 93" fill="none" xmlns="http://www.w3.org/2000/svg">
<path d="M81.6 57.7L77.7 60V62.4L76.6 63.3L77.5 65.7L78.7 65.3L79.4 66.5L79.1 68.3L80.4 69.8L81.9 68.8V67.2L83.5 67.3L85.2 65.5L87.5 66.6L92 67.2L96 67L100 65.2L101.9 64.9L104.4 66.1L105.9 66L107.9 65.2L110.7 66L111.9 65.7L112.9 65.8L113.7 66L114.4 65.5L114.1 63.3L115.1 62.6L115 60.1L112.5 58.8L112.8 57.5L114.3 56.4L113.7 54.5L115 53.3L113.8 51.6L111 52L109.4 49.8L108.5 49.9L107.8 51.2L105.6 49.5L104.5 49.3L103.3 48.2L100.1 49L98.1 47.5H94.3L91.7 49.7L89.5 49.5L87.8 50.8H86.2L83.1 52L82.6 54.9L81.6 56V57.7Z" fill="white"/>
<path d="M115.5 61.6V53.6L114.2 54.8L114.1 54.9L114.2 55L114.6 56.7L113.3 58L113.2 58.1V58.2V58.5V58.6L113.3 58.7L115.4 59.9V61.6H115.5Z" fill="black"/>
<path d="M77.3 59.6L81.2 57.4H81.3V57.2L81.4 55.5L82.3 54.7V54.6V54.5L82.8 51.7L86.2 50.2L87.6 50.4H87.7L87.8 50.3L89.7 48.9L91.5 49.1H91.6L91.7 49L94.4 46.9L98.4 47.2L99.9 48.6L100 48.7L100.1 48.6L103.4 47.7L104.9 49H105H105.1H106.2L107.6 50.3L107.8 50.5L107.9 50.3L108.3 49.6H109.9L111.2 51.6L111.3 51.7H111.5L114.1 51.1L115.5 53V0H77.2V61.6H77.3V59.6Z" fill="black"/>
<path d="M85.8 0.800003H85.1V51.2H85.8V0.800003Z" fill="white"/>
<path d="M93 0.800003H92.3V49.4H93V0.800003Z" fill="white"/>
<path d="M100.3 0.800003H99.6V48.8H100.3V0.800003Z" fill="white"/>
<path d="M107.6 0.800003H106.9V50.5H107.6V0.800003Z" fill="white"/>
<path d="M91.8 2.2H86.3V3.1H91.8V2.2Z" fill="white"/>
<path d="M91.8 5.2H86.3V6.50001H91.8V5.2Z" fill="white"/>
<path d="M91.8 7.10001H86.3V8.50001H91.8V7.10001Z" fill="white"/>
<path d="M91.8 14.3H86.3V15.6H91.8V14.3Z" fill="white"/>
<path d="M91.8 18.8H86.3V20.1H91.8V18.8Z" fill="white"/>
<path d="M91.8 23.3H86.3V24.6H91.8V23.3Z" fill="white"/>
<path d="M91.8 27.8H86.3V29.1H91.8V27.8Z" fill="white"/>
<path d="M91.8 31.2H87V31.7H91.8V31.2Z" fill="white"/>
<path d="M91.8 32.3H86.3V33.6H91.8V32.3Z" fill="white"/>
<path d="M91.8 35.5H87V36.2H91.8V35.5Z" fill="white"/>
<path d="M91.8 36.8H86.3V38.1H91.8V36.8Z" fill="white"/>
<path d="M91.8 39.5H87V40.7H91.8V39.5Z" fill="white"/>
<path d="M91.8 41.3H86.3V42.6H91.8V41.3Z" fill="white"/>
<path d="M91.8 43.7H86.9V45.2H91.8V43.7Z" fill="white"/>
<path d="M91.8 45.8H86.3V47.1H91.8V45.8Z" fill="white"/>
<path d="M91.8 49.3V47.7H86.3V51L91.8 49.3Z" fill="white"/>
<path d="M99.1 2.2H93.6V3.1H99.1V2.2Z" fill="white"/>
<path d="M99.1 5.2H93.6V6.50001H99.1V5.2Z" fill="white"/>
<path d="M99.1 7.10001H93.6V8.50001H99.1V7.10001Z" fill="white"/>
<path d="M99.1 14.3H93.6V15.6H99.1V14.3Z" fill="white"/>
<path d="M99.1 18.8H93.6V20.1H99.1V18.8Z" fill="white"/>
<path d="M99.1 23.3H93.6V24.6H99.1V23.3Z" fill="white"/>
<path d="M99.1 27.8H93.6V29.1H99.1V27.8Z" fill="white"/>
<path d="M98.4 31.2H93.6V31.7H98.4V31.2Z" fill="white"/>
<path d="M99.1 32.3H93.6V33.6H99.1V32.3Z" fill="white"/>
<path d="M98.4 35.5H93.6V36.2H98.4V35.5Z" fill="white"/>
<path d="M99.1 36.8H93.6V38.1H99.1V36.8Z" fill="white"/>
<path d="M98.4 39.5H93.6V40.7H98.4V39.5Z" fill="white"/>
<path d="M99.1 41.3H93.6V42.6H99.1V41.3Z" fill="white"/>
<path d="M98.5 43.7H93.6V45.2H98.5V43.7Z" fill="white"/>
<path d="M99.1 45.8H93.6V47.1H99.1V45.8Z" fill="white"/>
<path d="M106.4 2.2H100.9V3.1H106.4V2.2Z" fill="white"/>
<path d="M113.7 2.2H108.2V3.1H113.7V2.2Z" fill="white"/>
<path d="M106.4 5.2H100.9V6.50001H106.4V5.2Z" fill="white"/>
<path d="M106.4 7.10001H100.9V8.50001H106.4V7.10001Z" fill="white"/>
<path d="M106.4 14.3H100.9V15.6H106.4V14.3Z" fill="white"/>
<path d="M106.4 18.8H100.9V20.1H106.4V18.8Z" fill="white"/>
<path d="M106.4 23.3H100.9V24.6H106.4V23.3Z" fill="white"/>
<path d="M106.4 27.8H100.9V29.1H106.4V27.8Z" fill="white"/>
<path d="M106.4 32.3H100.9V33.6H106.4V32.3Z" fill="white"/>
<path d="M106.4 36.8H100.9V38.1H106.4V36.8Z" fill="white"/>
<path d="M106 40.2H101.2V40.7H106V40.2Z" fill="white"/>
<path d="M106.4 41.3H100.9V42.6H106.4V41.3Z" fill="white"/>
<path d="M106.3 43.7H101.4V45.2H106.3V43.7Z" fill="white"/>
<path d="M106.4 45.8H100.9V47.1H106.4V45.8Z" fill="white"/>
<path d="M103.4 48.5L106.4 49.5V47.7H100.9V48.8L103.4 48.5Z" fill="white"/>
<path d="M111.3 5.2H108.2V6.50001H111.3V5.2Z" fill="white"/>
<path d="M113.7 7.10001H108.2V8.50001H113.7V7.10001Z" fill="white"/>
<path d="M84.5 2.2H79V3.1H84.5V2.2Z" fill="white"/>
<path d="M84.5 5.2H81.4V6.50001H84.5V5.2Z" fill="white"/>
<path d="M84.5 7.10001H79V8.50001H84.5V7.10001Z" fill="white"/>
<path d="M110.2 14.3H108.2V15.6H110.2V14.3Z" fill="white"/>
<path d="M110.2 18.8H108.2V20.1H110.2V18.8Z" fill="white"/>
<path d="M110.2 23.3H108.2V24.6H110.2V23.3Z" fill="white"/>
<path d="M110.2 27.8H108.2V29.1H110.2V27.8Z" fill="white"/>
<path d="M108.9 31.6H108.2V32H108.9V31.6Z" fill="white"/>
<path d="M110.2 32.3H108.2V33.6H110.2V32.3Z" fill="white"/>
<path d="M108.7 35.9H108.2V36.4H108.7V35.9Z" fill="white"/>
<path d="M110.2 35.1H109.9V36.3H110.2V35.1Z" fill="white"/>
<path d="M110.2 39.4H109.9V40.6H110.2V39.4Z" fill="white"/>
<path d="M110.2 30.5H109.9V32.1H110.2V30.5Z" fill="white"/>
<path d="M110.2 26.3H109.9V27.5H110.2V26.3Z" fill="white"/>
<path d="M110.2 21.8H109.8V22.7H110.2V21.8Z" fill="white"/>
<path d="M110.2 36.8H108.2V38.1H110.2V36.8Z" fill="white"/>
<path d="M109.5 39.5H108.2V40.7H109.5V39.5Z" fill="white"/>
<path d="M110.2 41.3H108.2V42.6H110.2V41.3Z" fill="white"/>
<path d="M108.9 43.5H108.2V45.2H108.9V43.5Z" fill="white"/>
<path d="M110.3 43.6H109.9V45.3H110.3V43.6Z" fill="white"/>
<path d="M110.2 45.8H108.2V47.1H110.2V45.8Z" fill="white"/>
<path d="M109 47.7H108.2V50.2H109V47.7Z" fill="white"/>
<path d="M110.2 48.3H109.9V50.5H110.2V48.3Z" fill="white"/>
<path d="M84.4 14.3H82.4V15.6H84.4V14.3Z" fill="white"/>
<path d="M84.4 18.8H82.4V20.1H84.4V18.8Z" fill="white"/>
<path d="M84.4 23.3H82.4V24.6H84.4V23.3Z" fill="white"/>
<path d="M84.4 27.8H82.4V29.1H84.4V27.8Z" fill="white"/>
<path d="M84.4 31.6H83.7V32H84.4V31.6Z" fill="white"/>
<path d="M84.4 32.3H82.4V33.6H84.4V32.3Z" fill="white"/>
<path d="M84.5 35.9H84V36.4H84.5V35.9Z" fill="white"/>
<path d="M82.7 35.1H82.4V36.3H82.7V35.1Z" fill="white"/>
<path d="M82.7 39.4H82.4V40.6H82.7V39.4Z" fill="white"/>
<path d="M82.7 30.5H82.4V32.1H82.7V30.5Z" fill="white"/>
<path d="M82.7 26.3H82.4V27.5H82.7V26.3Z" fill="white"/>
<path d="M82.8 21.8H82.4V22.7H82.8V21.8Z" fill="white"/>
<path d="M84.4 36.8H82.4V38.1H84.4V36.8Z" fill="white"/>
<path d="M84.5 39.5H83.9V40.7H84.5V39.5Z" fill="white"/>
<path d="M84.4 41.3H82.4V42.6H84.4V41.3Z" fill="white"/>
<path d="M84.5 43.5H83.8V45.2H84.5V43.5Z" fill="white"/>
<path d="M82.8 43.6H82.4V45.3H82.8V43.6Z" fill="white"/>
<path d="M84.4 45.8H82.4V47.1H84.4V45.8Z" fill="white"/>
<path d="M84.5 47.7H83.7V51.2H84.5V47.7Z" fill="white"/>
<path d="M82.7 48.3H82.4V50.2H82.7V48.3Z" fill="white"/>
<path d="M78.8 58.9H79.8V13.7L78.8 12V58.9Z" fill="white"/>
<path d="M80.2 58.5H80.9V15.9L80.2 14.5V58.5Z" fill="white"/>
<path d="M81.4 57.9H81.8V17.5L81.4 16.6V57.9Z" fill="white"/>
<path d="M112.8 13.7V51.6H113.8V12L112.8 13.7Z" fill="white"/>
<path d="M111.7 15.9V51.9H112.4V14.5L111.7 15.9Z" fill="white"/>
<path d="M110.8 17.5V51.9H111.2V16.6L110.8 17.5Z" fill="white"/>
<path d="M114.4 54.7V55.9L114.6 56.7L114.4 56.9V59.3L115.2 59.8V53.9L114.4 54.7Z" fill="white"/>
<path d="M78.4 59V1.2H114.4V51.5L115.2 52.6V0.300003H77.5V59.5L78.4 59Z" fill="white"/>
<path d="M113.4 58.2L114.8 56.7L114.4 55L116.1 53.4L114.2 50.9L111.4 51.5L110.1 49.4H108.2L107.7 50.2L106.2 48.8H105.1L103.5 47.5L100.1 48.4L98.5 47L94.3 46.7L91.5 48.9L89.6 48.7L87.7 50.2L86.2 50L82.6 51.5L82.1 54.5L81.2 55.4L81.1 57.2L77.1 59.5V61.9L75.6 63L77.2 66.3L78.6 66L78.8 66.4L78.4 68.3L80.4 70.2L82.4 68.9L82.7 67.9H83.4L85.4 66.2L87.5 66.6L87.7 65.3L85.1 64.9L82.9 66.7H81.7L81.3 68.2L80.6 68.6L79.8 67.9L80.2 66.2L79.2 64.6L77.9 64.8L77.2 63.4L78.4 62.6V60.2L82.3 58L82.5 55.9L83.3 55.1L83.7 52.4L86.4 51.3L88 51.4L90 50L91.9 50.2L94.7 48L98 48.2L99.8 49.8L103.2 48.9L104.6 50.1H105.7L108 52.2L109.1 50.3L110.8 52.9L113.7 52.3L114.4 53.3L113 54.5L113.4 56.4L112.2 57.7V59.2L112.8 59.6L114.4 60.5V62.3L113.3 63.1L113.7 65.6L112.3 65.1L111.9 64.9L111.4 65.1L110.7 65.4L108.3 64.6L107.9 64.4L107.4 64.6L105.7 65.4L104.8 65L104.3 66.1L105.7 66.8L107.9 65.8L110.7 66.7L111.9 66.3L113.3 66.8L115 65.8L114.6 63.6L115.6 63V59.8L113.4 58.5V58.2Z" fill="#ED1C24"/>
<path d="M115.3 73.5H97.3C96.3 72.8 95.8 71.3 95.7 70.9C95.5 70 95.7 69.4 95.8 69.2C95.9 69 96.5 67.2 96.7 66.8L109.8 63.4C110 63.3 110.1 63.1 110 62.8C109.9 62.6 109.7 62.5 109.4 62.6L99.7 64.5C99.4 64.5 99.6 64.3 99.7 64.2L104.9 61.5C105.2 61.3 105.2 61 105.1 60.9C105.1 60.7 104.7 60.7 104.4 60.8L96.5 63.8C94.8 64.4 94.7 63.1 94.7 62.9C94.7 62.9 94.6 62.4 94.6 62.1C94.5 60.7 95.4 60 95.8 59.7L98 57.4C98.1 57.3 98 57.1 98 57C97.9 56.9 97.7 56.9 97.5 57L95.1 58.7C94.7 59.1 94.5 58.7 94.5 58.5L94 55.4C94 55.2 93.7 54.9 93.5 54.9C93.4 54.9 92.9 55.1 92.9 55.9V62.3C92.9 63.6 91.8 63.9 91.1 63.8L81 61.9C80.8 61.9 80.7 62 80.6 62.2C80.6 62.4 80.6 62.7 80.9 62.8L90.9 65.5C91.9 65.7 91.8 66.5 91.7 66.9C91.7 67.6 90.9 70.4 90.9 70.7C91 72 90.2 73.2 89.7 73.7H79.9V75.3H92.3L93.2 76.5L94.4 75.3H115.3V73.5V73.5Z" fill="#ED1C24"/>
<path d="M16.7 54.4V56.9H9.8V75H7V56.9H0V54.4H16.7Z" fill="black"/>
<path d="M23.2 54.4H26.3L33.8 75H30.7L28.6 68.8H20.5L18.3 75H15.4L23.2 54.4ZM27.8 66.5L24.6 57.4L21.3 66.5H27.8Z" fill="black"/>
<path d="M49.2 54.4V56.9H42.2V75H39.4V56.9H32.5V54.4H49.2Z" fill="black"/>
<path d="M55.2 54.4H52.4V75H55.2V54.4Z" fill="black"/>
<path d="M59.7 54.4H62.5V72.5H72.8V75H59.7V54.4Z" fill="black"/>
<path d="M123.4 54.4H126.2V72.5H136.5V75H123.4V54.4Z" fill="black"/>
<path d="M142.8 54.4H140V75H142.8V54.4Z" fill="black"/>
<path d="M147.6 54.4H161.9V56.9H150.4V63.2H160.5V65.6H150.4V75H147.6V54.4Z" fill="black"/>
<path d="M165.1 54.4H180V56.9H167.8V63.2H179.1V65.6H167.8V72.5H180.3V75H165.1V54.4Z" fill="black"/>
<path d="M18.5 91.5C18.5 92.2 16.4 92.9 15 92.9C11.9 92.9 10.3 90.9 10.3 86.7C10.3 82.5 11.9 80.3 15 80.3C16.6 80.3 18.3 81.1 18.3 81.4C18.3 81.5 18.3 81.5 18.2 81.7L17.6 82.9C17.5 83 17.5 83.1 17.4 83.1C17.3 83.1 16.3 82.3 15.1 82.3C13.3 82.3 12.7 84 12.7 86.7C12.7 89.4 13.2 91.2 15.1 91.2C15.7 91.2 16.2 91 16.4 90.9V88.4H15.1C14.8 88.4 14.7 88.3 14.7 88V86.8C14.7 86.5 14.8 86.4 15.1 86.4H18.2C18.5 86.4 18.6 86.5 18.6 86.8V91.5H18.5Z" fill="#ED1C24"/>
<path d="M26.5 92.8C26.4 92.8 26.3 92.9 26.2 92.9C26 92.9 25.8 92.6 25.6 91.9C25.1 92.3 24.3 92.9 22.9 92.9C21.9 92.9 20.6 92.5 20.6 90.3V84.3C20.6 84.1 20.7 84 20.9 84L22.4 83.7C22.5 83.7 22.6 83.6 22.7 83.6C22.8 83.6 22.8 83.7 22.8 84V89.6C22.8 90.3 22.9 91.1 23.8 91.1C24.5 91.1 25.1 90.7 25.3 90.6V84.3C25.3 84.1 25.4 84 25.6 84L27.1 83.7C27.2 83.7 27.3 83.6 27.4 83.6C27.5 83.6 27.5 83.7 27.5 84V89.5C27.5 92 27.8 91.8 27.8 92.2C27.8 92.3 27.7 92.4 27.6 92.4L26.5 92.8Z" fill="#ED1C24"/>
<path d="M35.2 92.8C35.1 92.8 35 92.9 35 92.9C34.8 92.9 34.6 92.3 34.5 91.8C34.1 92.2 33.5 92.9 32.2 92.9C30.6 92.9 29.6 91.8 29.6 90.2C29.6 87.2 32.8 87.2 34.2 87.2V86.7C34.2 85.9 34.1 85.4 33 85.4C32 85.4 31.1 85.9 30.8 85.9C30.7 85.9 30.6 85.8 30.6 85.7L30.2 84.6C30.2 84.5 30.1 84.5 30.1 84.4C30.1 84 31.8 83.6 33.2 83.6C35.4 83.6 36.2 84.6 36.2 86.4V89.8C36.2 91.5 36.7 91.7 36.7 92.1C36.7 92.2 36.6 92.2 36.5 92.3L35.2 92.8ZM34.1 88.6C33.7 88.6 31.6 88.5 31.6 90C31.6 90.7 32.1 91.2 32.8 91.2C33.4 91.2 33.9 90.7 34.1 90.5V88.6Z" fill="#ED1C24"/>
<path d="M40.8 92.3C40.8 92.5 40.8 92.5 40.6 92.5H38.9C38.7 92.5 38.7 92.4 38.7 92.3V87C38.7 85.1 38.2 84.8 38.2 84.4C38.2 84.3 38.3 84.3 38.4 84.2L39.7 83.7C39.8 83.7 39.9 83.6 39.9 83.6C40.1 83.6 40.5 84.4 40.5 85C40.8 84.6 41.5 83.6 42.7 83.6C43.2 83.6 43.7 83.8 43.7 84C43.7 84.1 43.7 84.1 43.7 84.2L43.2 85.7C43.2 85.8 43.1 85.9 43.1 85.9C43 85.9 42.7 85.7 42.3 85.7C41.8 85.7 41.2 86.3 41 86.5V92.3H40.8Z" fill="#ED1C24"/>
<path d="M49.5 92.8C49.4 92.8 49.3 92.9 49.3 92.9C49.1 92.9 48.9 92.3 48.8 91.8C48.4 92.2 47.8 92.9 46.5 92.9C44.9 92.9 43.9 91.8 43.9 90.2C43.9 87.2 47.1 87.2 48.5 87.2V86.7C48.5 85.9 48.4 85.4 47.3 85.4C46.3 85.4 45.4 85.9 45.1 85.9C45 85.9 44.9 85.8 44.9 85.7L44.5 84.6C44.5 84.5 44.4 84.5 44.4 84.4C44.4 84 46.1 83.6 47.5 83.6C49.7 83.6 50.5 84.6 50.5 86.4V89.8C50.5 91.5 51 91.7 51 92.1C51 92.2 50.9 92.2 50.8 92.3L49.5 92.8ZM48.4 88.6C48 88.6 45.9 88.5 45.9 90C45.9 90.7 46.4 91.2 47.1 91.2C47.7 91.2 48.2 90.7 48.4 90.5V88.6Z" fill="#ED1C24"/>
<path d="M59.9 92.3C59.9 92.5 59.9 92.5 59.7 92.5H58C57.8 92.5 57.8 92.4 57.8 92.3V86.9C57.8 86.2 57.7 85.4 56.8 85.4C56.1 85.4 55.5 85.9 55.3 86.1V92.3C55.3 92.5 55.3 92.5 55.1 92.5H53.4C53.2 92.5 53.2 92.4 53.2 92.3V87C53.2 84.5 52.9 84.7 52.9 84.3C52.9 84.2 53 84.1 53.1 84.1L54.4 83.7C54.5 83.7 54.6 83.6 54.7 83.6C54.9 83.6 55.1 84 55.3 84.8C55.8 84.3 56.6 83.6 58 83.6C59 83.6 60.3 84 60.3 86.2V92.3H59.9Z" fill="#ED1C24"/>
<path d="M67.5 92.1C67.5 92.2 67.5 92.2 67.5 92.2C67.5 92.5 66.2 92.9 65 92.9C62.7 92.9 62.7 91.1 62.7 89.5V85.6H61.5C61.3 85.6 61.3 85.5 61.3 85.4V84.3C61.3 84.1 61.3 84.1 61.5 84.1H62.7V81.9C62.7 81.7 62.7 81.6 63 81.6L64.5 81.4C64.6 81.4 64.6 81.4 64.7 81.4C64.9 81.4 64.9 81.5 64.9 81.7V84.2H66.9C67.1 84.2 67.2 84.2 67.2 84.4V84.5L67 85.5C66.9 85.7 66.9 85.8 66.7 85.8H65V90C65 90.6 65 91.1 65.6 91.1C66.3 91.1 66.7 90.8 67 90.8C67.1 90.8 67.1 90.8 67.1 90.9L67.5 92.1Z" fill="#ED1C24"/>
<path d="M75.3 91.6C75.3 91.7 75.4 91.7 75.4 91.8C75.4 92.3 73.6 92.8 72.3 92.8C70 92.8 68.4 91.5 68.4 88.3C68.4 85.5 69.9 83.6 72.2 83.6C75.2 83.6 75.7 86.3 75.7 88.4C75.7 88.7 75.6 88.8 75.3 88.8H70.6C70.6 89.8 70.9 91 72.5 91C73.8 91 74.5 90.4 74.7 90.4C74.8 90.4 74.9 90.5 74.9 90.5L75.3 91.6ZM73.3 87.2C73.3 86.5 73.2 85.2 72 85.2C70.6 85.2 70.6 86.7 70.5 87.2H73.3Z" fill="#ED1C24"/>
<path d="M84.1 91.6C84.1 91.7 84.2 91.7 84.2 91.8C84.2 92.3 82.4 92.8 81.1 92.8C78.8 92.8 77.2 91.5 77.2 88.3C77.2 85.5 78.7 83.6 81 83.6C84 83.6 84.5 86.3 84.5 88.4C84.5 88.7 84.4 88.8 84.1 88.8H79.4C79.4 89.8 79.7 91 81.3 91C82.6 91 83.3 90.4 83.5 90.4C83.6 90.4 83.7 90.5 83.7 90.5L84.1 91.6ZM82.1 87.2C82.1 86.5 82 85.2 80.8 85.2C79.4 85.2 79.4 86.7 79.3 87.2H82.1Z" fill="#ED1C24"/>
<path d="M91.9 92.8C91.8 92.8 91.7 92.9 91.7 92.9C91.5 92.9 91.3 92.3 91.2 91.8C90.9 92.1 90.1 92.9 88.9 92.9C86.9 92.9 85.9 91.3 85.9 88.6C85.9 85.3 87.1 83.6 89.3 83.6C90.2 83.6 90.7 83.9 90.9 84.1V80.5C90.9 80.2 91 80.2 91.2 80.2L92.7 79.9C92.8 79.9 92.9 79.8 92.9 79.8C93 79.8 93.1 79.9 93.1 80.2V89.8C93.1 91.5 93.4 91.7 93.4 92.1C93.4 92.2 93.3 92.2 93.2 92.3L91.9 92.8ZM90.9 85.7C90.7 85.6 90.4 85.3 89.7 85.3C88.4 85.3 88.1 86.3 88.1 88.2C88.1 90.2 88.4 91 89.6 91C90.4 91 90.7 90.6 90.9 90.4V85.7Z" fill="#ED1C24"/>
<path d="M103.1 92.2C103.1 92.5 103 92.6 102.7 92.6H101.1C100.8 92.6 100.7 92.5 100.7 92.2V80.9C100.7 80.6 100.8 80.5 101.1 80.5H103.9C105.3 80.5 108 80.5 108 83.8C108 86.7 105.8 87.7 104 87.7H103.1V92.2V92.2ZM103.7 85.9C104.7 85.9 105.7 85.7 105.7 84C105.7 82.5 104.8 82.4 103.9 82.4H103.2V85.9H103.7Z" fill="#ED1C24"/>
<path d="M112 92.3C112 92.5 112 92.5 111.8 92.5H110.1C109.9 92.5 109.9 92.4 109.9 92.3V87C109.9 85.1 109.4 84.8 109.4 84.4C109.4 84.3 109.5 84.3 109.6 84.2L110.9 83.7C111 83.7 111.1 83.6 111.1 83.6C111.3 83.6 111.7 84.4 111.7 85C112 84.6 112.7 83.6 113.9 83.6C114.4 83.6 114.9 83.8 114.9 84C114.9 84.1 114.9 84.1 114.9 84.2L114.4 85.7C114.4 85.8 114.3 85.9 114.3 85.9C114.2 85.9 113.9 85.7 113.5 85.7C113 85.7 112.4 86.3 112.2 86.5V92.3H112Z" fill="#ED1C24"/>
<path d="M119 92.9C116.6 92.9 115.2 91.1 115.2 88.3C115.2 85.5 116.6 83.7 119 83.7C121.4 83.7 122.8 85.5 122.8 88.3C122.8 91.1 121.3 92.9 119 92.9ZM120.4 88.2C120.4 86.6 120.2 85.3 119 85.3C117.8 85.3 117.6 86.5 117.6 88.2C117.6 89.8 117.8 91.1 119 91.1C120.2 91.1 120.4 89.9 120.4 88.2Z" fill="#ED1C24"/>
<path d="M129.9 92.1C129.9 92.2 129.9 92.2 129.9 92.2C129.9 92.5 128.6 92.9 127.4 92.9C125.1 92.9 125.1 91.1 125.1 89.5V85.6H123.9C123.7 85.6 123.7 85.5 123.7 85.4V84.3C123.7 84.1 123.7 84.1 123.9 84.1H125.1V81.9C125.1 81.7 125.1 81.6 125.4 81.6L126.9 81.4C127 81.4 127 81.4 127.1 81.4C127.3 81.4 127.3 81.5 127.3 81.7V84.2H129.3C129.5 84.2 129.6 84.2 129.6 84.4V84.5L129.4 85.5C129.3 85.7 129.3 85.8 129.1 85.8H127.4V90C127.4 90.6 127.4 91.1 128 91.1C128.7 91.1 129.1 90.8 129.4 90.8C129.5 90.8 129.5 90.8 129.5 90.9L129.9 92.1Z" fill="#ED1C24"/>
<path d="M137.7 91.6C137.7 91.7 137.8 91.7 137.8 91.8C137.8 92.3 136 92.8 134.7 92.8C132.4 92.8 130.8 91.5 130.8 88.3C130.8 85.5 132.3 83.6 134.6 83.6C137.6 83.6 138.1 86.3 138.1 88.4C138.1 88.7 138 88.8 137.7 88.8H133C133 89.8 133.3 91 134.9 91C136.2 91 136.9 90.4 137.1 90.4C137.2 90.4 137.3 90.5 137.3 90.5L137.7 91.6ZM135.7 87.2C135.7 86.5 135.6 85.2 134.4 85.2C133 85.2 133 86.7 132.9 87.2H135.7Z" fill="#ED1C24"/>
<path d="M145.8 91.8C145.8 91.9 145.9 91.9 145.9 92C145.9 92.4 144.5 92.9 143.4 92.9C141 92.9 139.5 91.4 139.5 88.4C139.5 85.4 141 83.6 143.6 83.6C144.5 83.6 146.1 84.1 146.1 84.7C146.1 84.8 146.1 84.8 146 84.9L145.4 86L145.3 86.1C145.1 86.1 144.5 85.4 143.6 85.4C142.4 85.4 141.9 86.3 141.9 88.3C141.9 90.2 142.4 91.1 143.7 91.1C144.6 91.1 144.9 90.5 145.3 90.5C145.4 90.5 145.4 90.5 145.4 90.6L145.8 91.8Z" fill="#ED1C24"/>
<path d="M152.7 92.1C152.7 92.2 152.7 92.2 152.7 92.2C152.7 92.5 151.4 92.9 150.2 92.9C147.9 92.9 147.9 91.1 147.9 89.5V85.6H146.7C146.5 85.6 146.5 85.5 146.5 85.4V84.3C146.5 84.1 146.5 84.1 146.7 84.1H147.9V81.9C147.9 81.7 147.9 81.6 148.2 81.6L149.7 81.4C149.8 81.4 149.8 81.4 149.9 81.4C150.1 81.4 150.1 81.5 150.1 81.7V84.2H152.1C152.3 84.2 152.4 84.2 152.4 84.4V84.5L152.2 85.5C152.1 85.7 152.1 85.8 151.9 85.8H150.2V90C150.2 90.6 150.2 91.1 150.8 91.1C151.5 91.1 151.9 90.8 152.2 90.8C152.3 90.8 152.3 90.8 152.3 90.9L152.7 92.1Z" fill="#ED1C24"/>
<path d="M156.9 92.3C156.9 92.5 156.9 92.5 156.7 92.5H155C154.8 92.5 154.8 92.4 154.8 92.3V85.5H153.4C153.2 85.5 153.2 85.4 153.2 85.3V84.2C153.2 84 153.2 84 153.4 84H156.7C156.9 84 156.9 84.1 156.9 84.2V92.3V92.3ZM155.7 82.8C154.9 82.8 154.2 82.2 154.2 81.3C154.2 80.5 154.8 79.9 155.7 79.9C156.5 79.9 157.1 80.5 157.1 81.3C157.2 82.1 156.5 82.8 155.7 82.8Z" fill="#ED1C24"/>
<path d="M162.8 92.9C160.4 92.9 159 91.1 159 88.3C159 85.5 160.4 83.7 162.8 83.7C165.2 83.7 166.6 85.5 166.6 88.3C166.6 91.1 165.2 92.9 162.8 92.9ZM164.3 88.2C164.3 86.6 164.1 85.3 162.9 85.3C161.7 85.3 161.5 86.5 161.5 88.2C161.5 89.8 161.7 91.1 162.9 91.1C164.1 91.1 164.3 89.9 164.3 88.2Z" fill="#ED1C24"/>
<path d="M175.6 92.3C175.6 92.5 175.6 92.5 175.4 92.5H173.7C173.5 92.5 173.5 92.4 173.5 92.3V86.9C173.5 86.2 173.4 85.4 172.5 85.4C171.8 85.4 171.2 85.9 171 86.1V92.3C171 92.5 171 92.5 170.8 92.5H169.1C168.9 92.5 168.9 92.4 168.9 92.3V87C168.9 84.5 168.6 84.7 168.6 84.3C168.6 84.2 168.7 84.1 168.8 84.1L170.1 83.7C170.2 83.7 170.3 83.6 170.4 83.6C170.6 83.6 170.8 84 171 84.8C171.5 84.3 172.3 83.6 173.7 83.6C174.7 83.6 176 84 176 86.2V92.3H175.6Z" fill="#ED1C24"/>
</svg>
