<svg width="340" height="252" viewBox="0 0 340 252" fill="none" xmlns="http://www.w3.org/2000/svg">
<path d="M173.8 166C173.8 166 188.4 166.2 188.4 182.8H190.4V163.3H134.3V182.8H136.4C136.4 166.1 151.2 166 151.2 166L151 217.4H143.9V219.4H181.5V217.4H173.7L173.8 166Z" fill="#231F20"/>
<path d="M283.1 169C283.1 165 287.5 161.7 292.9 161.7C298.3 161.7 302.8 165 302.8 169C302.8 173 298.4 176.3 292.9 176.3C287.5 176.3 283.1 173 283.1 169Z" fill="#231F20"/>
<path d="M302.5 181.1H280.2V183.6H284.3V217.5H279.4V219.4H307.3V217.4H302.5V181.1Z" fill="#231F20"/>
<path d="M333.3 162C333.3 162 330 162.8 324.6 163.1C319.3 163.4 311 163.5 311 163.5V165.9H315.2V217.3H310.2V219.2H338.2V217.3H333.4L333.3 162Z" fill="#231F20"/>
<path d="M269.2 167.4V181.3H277.6V183.6H269.2V212C269.2 214 269.8 215.7 272.2 215.7C274.2 215.7 276.6 211.8 276.6 206.1H278.5C278.5 210.1 277.8 220.7 263.1 220.7C257 220.7 250.9 218.2 250.9 211V183.6H246V181.6C252.7 180.8 262.5 177 267.1 167.4H269.2Z" fill="#231F20"/>
<path d="M220.9 185.9C220.9 181.8 215.4 183 214.3 183C211.6 183 215.6 184.9 215.6 189.9C215.6 194.6 208.9 195.5 206.2 195.5C201.4 195.5 197.6 193.2 197.6 189.1C197.6 182.5 201.6 180.6 220.9 180.6C229.9 180.6 238.1 181.5 238.1 193.6V212.4C238.1 213.3 238.5 215 240.3 215C240.9 215 242.1 214 242.2 212.9H244.2C244.1 215.5 239.1 219.8 231.8 219.8C228 219.8 225.1 220.2 221.1 215.6C218.8 217.3 213.7 220.3 207.3 220.3C203.8 220.3 194.4 218.1 194.4 211.8C194.4 205.9 195.5 197.1 220.9 197C220.9 197.1 220.9 190 220.9 185.9ZM213.2 211.1C213.2 215.1 215.2 215.5 217 215.5C219.2 215.5 219.9 214.6 220.9 213.4V199.7C214.7 199.8 213.2 201.1 213.2 211.1Z" fill="#231F20"/>
<path d="M17.8 169.3L6.2 176.1L6.29999 183.3L2.89999 185.7L5.7 192.8L9.29999 191.7L11.2 195.1L10.2 200.4L14.2 204.8L18.4 201.9L18.6 197.2L23.1 197.5L28.2 192.3L34.8 195.4L48.1 197.2L60 196.7L71.6 191.4L77.1 190.4L84.5 194.1L88.9 193.8L94.8 191.5L102.9 193.6L106.5 192.8L109.4 193.3L111.7 193.8L114 192.3L113 185.7L116 183.9L115.8 176.4L108.4 172.6L109.3 168.7L113.5 165.6L111.7 159.9L115.8 156.4L112 151.6L104 152.6L99.2 146.3L96.6 146.7L94.4 150.2L88.1 145.2L85 144.9L81.2 141.6L71.9 143.9L66.2 139.5L55 139.4L47.3 145.8L40.9 145.4L35.7 149.2L31.1 149.1L22.2 152.8L20.7 161.1L17.8 164.5V169.3Z" fill="white"/>
<path d="M117.3 180.9V157.5L113.4 160.9L113.1 161.1L113.2 161.5L114.3 166.4L110.6 170.3L110.4 170.5V170.7V171.7V172.1L110.7 172.3L116.9 175.8V180.9H117.3Z" fill="#231F20"/>
<path d="M5.10001 175L16.6 168.5L16.9 168.4V168L17.2 162.8L19.6 160.5L19.8 160.3V160.1L21.1 151.7L31.2 147.5L35.4 147.9H35.6L35.8 147.8L41.3 143.6L46.8 144.1L47 144.2L47.2 144L55.2 137.7L67.1 138.6L71.5 142.7L71.7 142.9L72.1 142.8L81.6 140.1L86.1 143.8L86.3 143.9H86.5H89.7L93.9 147.8L94.5 148.3L94.8 147.7L96.1 145.5L100.8 145.6L104.6 151.4L104.8 151.8L105.3 151.7L113 150.1L117.3 155.7V0H4.70001V180.9H5.10001V175Z" fill="#231F20"/>
<path d="M29.8 2.29999H27.8V150.3H29.8V2.29999Z" fill="white"/>
<path d="M51.2 2.29999H49.2V144.9H51.2V2.29999Z" fill="white"/>
<path d="M72.6 2.29999H70.6V143.3H72.6V2.29999Z" fill="white"/>
<path d="M94 2.29999H92V148.2H94V2.29999Z" fill="white"/>
<path d="M47.6 6.5H31.5V9.1H47.6V6.5Z" fill="white"/>
<path d="M47.6 15.3H31.5V19.2H47.6V15.3Z" fill="white"/>
<path d="M47.6 20.9H31.5V24.9H47.6V20.9Z" fill="white"/>
<path d="M47.6 42H31.5V45.9H47.6V42Z" fill="white"/>
<path d="M47.6 55.3H31.5V59.3H47.6V55.3Z" fill="white"/>
<path d="M47.6 68.5H31.5V72.5H47.6V68.5Z" fill="white"/>
<path d="M47.6 81.7H31.5V85.7H47.6V81.7Z" fill="white"/>
<path d="M47.6 91.7H33.6V93H47.6V91.7Z" fill="white"/>
<path d="M47.6 94.9H31.5V98.9H47.6V94.9Z" fill="white"/>
<path d="M47.6 104.3H33.6V106.3H47.6V104.3Z" fill="white"/>
<path d="M47.6 108.1H31.5V112H47.6V108.1Z" fill="white"/>
<path d="M47.6 115.9H33.6V119.5H47.6V115.9Z" fill="white"/>
<path d="M47.6 121.4H31.5V125.3H47.6V121.4Z" fill="white"/>
<path d="M47.6 128.3H33.1V132.6H47.6V128.3Z" fill="white"/>
<path d="M47.6 134.6H31.5V138.6H47.6V134.6Z" fill="white"/>
<path d="M47.5 144.7V140.1H31.5V149.7L47.5 144.7Z" fill="white"/>
<path d="M68.9 6.5H52.8V9.1H68.9V6.5Z" fill="white"/>
<path d="M68.9 15.3H52.8V19.2H68.9V15.3Z" fill="white"/>
<path d="M68.9 20.9H52.8V24.9H68.9V20.9Z" fill="white"/>
<path d="M68.9 42H52.8V45.9H68.9V42Z" fill="white"/>
<path d="M68.9 55.3H52.8V59.3H68.9V55.3Z" fill="white"/>
<path d="M68.9 68.5H52.8V72.5H68.9V68.5Z" fill="white"/>
<path d="M68.9 81.7H52.8V85.7H68.9V81.7Z" fill="white"/>
<path d="M66.8 91.7H52.8V93H66.8V91.7Z" fill="white"/>
<path d="M68.9 94.9H52.8V98.9H68.9V94.9Z" fill="white"/>
<path d="M66.8 104.3H52.8V106.3H66.8V104.3Z" fill="white"/>
<path d="M68.9 108.1H52.8V112H68.9V108.1Z" fill="white"/>
<path d="M66.8 115.9H52.8V119.5H66.8V115.9Z" fill="white"/>
<path d="M68.9 121.4H52.8V125.3H68.9V121.4Z" fill="white"/>
<path d="M67.3 128.3H52.8V132.6H67.3V128.3Z" fill="white"/>
<path d="M68.9 134.6H52.8V138.6H68.9V134.6Z" fill="white"/>
<path d="M90.3 6.5H74.2V9.1H90.3V6.5Z" fill="white"/>
<path d="M111.8 6.5H95.7V9.1H111.8V6.5Z" fill="white"/>
<path d="M90.3 15.3H74.2V19.2H90.3V15.3Z" fill="white"/>
<path d="M90.3 20.9H74.2V24.9H90.3V20.9Z" fill="white"/>
<path d="M90.3 42H74.2V45.9H90.3V42Z" fill="white"/>
<path d="M90.3 55.3H74.2V59.3H90.3V55.3Z" fill="white"/>
<path d="M90.3 68.5H74.2V72.5H90.3V68.5Z" fill="white"/>
<path d="M90.3 81.7H74.2V85.7H90.3V81.7Z" fill="white"/>
<path d="M90.3 94.9H74.2V98.9H90.3V94.9Z" fill="white"/>
<path d="M90.3 108.1H74.2V112H90.3V108.1Z" fill="white"/>
<path d="M89.1 118H75.1V119.5H89.1V118Z" fill="white"/>
<path d="M90.3 121.4H74.2V125.3H90.3V121.4Z" fill="white"/>
<path d="M90.4 128.3H75.9V132.6H90.4V128.3Z" fill="white"/>
<path d="M90.3 134.6H74.2V138.6H90.3V134.6Z" fill="white"/>
<path d="M81.6 142.5L90.4 145.4V140.1H74.2V143.2L81.6 142.5Z" fill="white"/>
<path d="M104.8 15.3H95.6V19.2H104.8V15.3Z" fill="white"/>
<path d="M111.7 20.9H95.6V24.9H111.7V20.9Z" fill="white"/>
<path d="M26.1 6.5H10V9.1H26.1V6.5Z" fill="white"/>
<path d="M26.1 15.3H16.9V19.2H26.1V15.3Z" fill="white"/>
<path d="M26.1 20.9H10V24.9H26.1V20.9Z" fill="white"/>
<path d="M101.6 42H95.6V45.9H101.6V42Z" fill="white"/>
<path d="M101.6 55.3H95.6V59.3H101.6V55.3Z" fill="white"/>
<path d="M101.6 68.5H95.6V72.5H101.6V68.5Z" fill="white"/>
<path d="M101.6 81.7H95.6V85.7H101.6V81.7Z" fill="white"/>
<path d="M97.8 92.8H95.6V94.1H97.8V92.8Z" fill="white"/>
<path d="M101.6 94.9H95.6V98.9H101.6V94.9Z" fill="white"/>
<path d="M97 105.3H95.6V106.9H97V105.3Z" fill="white"/>
<path d="M101.7 103.2H100.7V106.8H101.7V103.2Z" fill="white"/>
<path d="M101.7 115.7H100.7V119.3H101.7V115.7Z" fill="white"/>
<path d="M101.7 89.5H100.7V94.1H101.7V89.5Z" fill="white"/>
<path d="M101.7 77.2H100.7V80.7H101.7V77.2Z" fill="white"/>
<path d="M101.7 64.2H100.5V67H101.7V64.2Z" fill="white"/>
<path d="M101.6 108.1H95.6V112H101.6V108.1Z" fill="white"/>
<path d="M99.5 115.9H95.6V119.5H99.5V115.9Z" fill="white"/>
<path d="M101.6 121.4H95.6V125.3H101.6V121.4Z" fill="white"/>
<path d="M97.6 127.6H95.6V132.7H97.6V127.6Z" fill="white"/>
<path d="M101.6 128H100.6V133.1H101.6V128Z" fill="white"/>
<path d="M101.6 134.6H95.6V138.6H101.6V134.6Z" fill="white"/>
<path d="M97.9 140.1H95.6V147.6H97.9V140.1Z" fill="white"/>
<path d="M101.7 141.9H100.8V148.2H101.7V141.9Z" fill="white"/>
<path d="M26.1 42H20.1V45.9H26.1V42Z" fill="white"/>
<path d="M26.1 55.3H20.1V59.3H26.1V55.3Z" fill="white"/>
<path d="M26.1 68.5H20.1V72.5H26.1V68.5Z" fill="white"/>
<path d="M26.1 81.7H20.1V85.7H26.1V81.7Z" fill="white"/>
<path d="M26.1 92.8H23.9V94.1H26.1V92.8Z" fill="white"/>
<path d="M26.1 94.9H20.1V98.9H26.1V94.9Z" fill="white"/>
<path d="M26.1 105.3H24.7V106.9H26.1V105.3Z" fill="white"/>
<path d="M21.1 103.2H20.1V106.8H21.1V103.2Z" fill="white"/>
<path d="M21.1 115.7H20.1V119.3H21.1V115.7Z" fill="white"/>
<path d="M21.1 89.5H20.1V94.1H21.1V89.5Z" fill="white"/>
<path d="M21.1 77.2H20.1V80.7H21.1V77.2Z" fill="white"/>
<path d="M21.3 64.2H20.1V67H21.3V64.2Z" fill="white"/>
<path d="M26.1 108.1H20.1V112H26.1V108.1Z" fill="white"/>
<path d="M26.1 115.9H24.4V119.5H26.1V115.9Z" fill="white"/>
<path d="M26.1 121.4H20.1V125.3H26.1V121.4Z" fill="white"/>
<path d="M26.1 127.6H24.1V132.7H26.1V127.6Z" fill="white"/>
<path d="M21.1 128H20.1V133.1H21.1V128Z" fill="white"/>
<path d="M26.1 134.6H20.1V138.6H26.1V134.6Z" fill="white"/>
<path d="M26.1 140.1H23.8V150.5H26.1V140.1Z" fill="white"/>
<path d="M21 141.9H20.1V147.5H21V141.9Z" fill="white"/>
<path d="M9.5 35.2V173H12.3V40.3L9.5 35.2Z" fill="white"/>
<path d="M13.5 42.6V171.8H15.7V46.6L13.5 42.6Z" fill="white"/>
<path d="M16.9 48.9V169.9H18.4V51.6L16.9 48.9Z" fill="white"/>
<path d="M112 35.2V151.6H109.3V40.3L112 35.2Z" fill="white"/>
<path d="M108 42.6V152.4H105.9V46.6L108 42.6Z" fill="white"/>
<path d="M104.6 48.9V152.4H103.2V51.6L104.6 48.9Z" fill="white"/>
<path d="M113.8 164L114.3 166.4L113.8 167V174L116.2 175.4V158.4L113.8 160.5V164Z" fill="white"/>
<path d="M8.19999 173.3V3.5H113.8V151.1L116.2 154.3V1H5.79999V174.7L8.19999 173.3Z" fill="white"/>
<path d="M111 170.7L115 166.6L113.8 161.3L118.9 156.9L113.3 149.4L105.1 151.1L101.2 145L95.8 144.9L94.3 147.4L89.9 143.3H86.5L81.8 139.5L71.9 142.2L67.3 138L55 137L46.8 143.5L41.1 143L35.4 147.3L31.1 146.9L20.5 151.3L19.2 160L16.6 162.6L16.2 168L4.5 174.7V181.9L0 185L4.7 194.5L8.7 193.7L9.5 195L8.4 200.4L14.1 206.2L20 202.4L20.8 199.4L23 199.3L28.9 194.4L34.8 195.4L35.4 191.8L27.8 190.6L21.6 195.7L18 195.9L16.9 200.1L14.6 201.5L12.4 199.2L13.4 194.3L10.5 189.6L6.8 190.4L4.7 186.2L8.2 183.8V176.8L19.8 170.2L20.1 164.2L22.6 161.8L23.9 153.9L31.7 150.6L36.5 151L42.2 146.8L48 147.3L56.1 140.8L65.8 141.6L70.9 146.3L80.9 143.5L85.2 146.9H88.5L95.2 153.1L98.4 147.6L103.4 155.2L111.7 153.4L113.9 156.4L109.7 160L111 165.5L107.4 169.3V173.8L109.2 174.9L113.9 177.6V182.9L110.6 185.1L111.9 192.6L107.7 191.1L106.5 190.7L105.2 191.1L103 191.9L96.1 189.6L94.7 189.1L93.4 189.7L88.4 192.1L85.9 190.7L84.1 193.9L88.3 196.1L94.9 193L103 195.7L106.5 194.5L110.6 196L115.7 193.1L114.6 186.8L117.6 184.9V175.5L111 171.7V170.7Z" fill="#EC2127"/>
<path d="M116.5 215.7H63.6C60.6 213.6 59.2 209.2 59 208.1C58.5 205.5 59.1 203.6 59.3 203C59.5 202.5 61.3 197.3 62 195.8L100.4 185.9C101.1 185.7 101.2 185.1 101 184.2C100.8 183.5 100.2 183.4 99.4 183.5L70.9 189.2C70.1 189.3 70.6 188.7 70.9 188.5L86.3 180.5C87.1 180 87.1 179.1 86.8 178.7C86.7 178.2 85.6 178.1 84.8 178.4L61.6 187.1C56.6 188.9 56.4 185.1 56.3 184.3C56.3 184.3 56 182.8 56.1 181.9C55.7 177.7 58.5 175.8 59.5 174.7L65.9 167.8C66.1 167.5 66 166.9 65.8 166.6C65.5 166.3 64.8 166.3 64.4 166.6L57.5 171.7C56.3 172.8 55.9 171.7 55.8 171.1L54.4 161.9C54.3 161.2 53.6 160.4 53 160.4C52.6 160.4 51.4 161 51.4 163.3L51 182.4C51 186.4 47.8 187.2 45.7 186.9L16 181.2C15.5 181.1 15 181.5 14.7 182C14.6 182.5 14.8 183.4 15.7 183.8L45 191.6C47.9 192.2 47.6 194.5 47.4 195.6C47.3 197.6 45 205.8 45 206.7C45.2 210.5 42.9 214 41.5 215.6H12.6V220.2H49L51.6 223.7L55.2 220.2H116.5V215.7Z" fill="#EC2127"/>
<path d="M33.3 243.1H29.6V246.7H33.3V243.1Z" fill="#231F20"/>
<path d="M40.1 243.1H36.4V246.7H40.1V243.1Z" fill="#231F20"/>
<path d="M46.9 243.1H43.2V246.7H46.9V243.1Z" fill="#231F20"/>
<path d="M70.3 246.7H66.8L64.8 237.2L62.7 246.7H59.2L55.5 233.7H59.2L61.2 243L63.1 233.7H66.5L68.5 243L70.6 233.7H74.1L70.3 246.7Z" fill="#231F20"/>
<path d="M87.7 246.7H84.3V238.8C84.3 237.8 84.3 236.2 82.1 236.2C80.6 236.2 79.4 237.2 79.4 239.2V246.6H76V229H79.4V235.2C79.9 234.1 81.4 233.2 83.2 233.2C85.7 233.2 87.7 234.7 87.7 237.6V246.7V246.7Z" fill="#231F20"/>
<path d="M98.6 238.9C98.4 236.8 97.1 236.2 96 236.2C94.4 236.2 93.5 237.2 93.3 238.9H98.6ZM102 242.9C101.1 246 98.5 247.1 96.3 247.1C92.6 247.1 89.8 245.3 89.8 240C89.8 238.4 90.3 233.4 96 233.4C98.6 233.4 102.1 234.6 102.1 240.6V241.2H93.2C93.3 242.2 93.5 244.4 96.3 244.4C97.2 244.4 98.2 243.9 98.5 243H102V242.9Z" fill="#231F20"/>
<path d="M104.4 233.7H107.7V235.9C108.4 234.6 109.2 233.3 111.3 233.3C111.5 233.3 111.7 233.3 112 233.4V236.9C111.7 236.9 111.3 236.9 111 236.9C108.3 236.9 107.8 238.6 107.8 240V246.8H104.4V233.7Z" fill="#231F20"/>
<path d="M121.8 238.9C121.6 236.8 120.3 236.2 119.2 236.2C117.6 236.2 116.7 237.2 116.5 238.9H121.8ZM125.1 242.9C124.2 246 121.6 247.1 119.4 247.1C115.7 247.1 112.9 245.3 112.9 240C112.9 238.4 113.4 233.4 119.1 233.4C121.7 233.4 125.2 234.6 125.2 240.6V241.2H116.3C116.4 242.2 116.6 244.4 119.4 244.4C120.4 244.4 121.3 243.9 121.6 243H125.1V242.9Z" fill="#231F20"/>
<path d="M140.6 244.2C142.8 244.2 143.4 241.8 143.4 240.3C143.4 238.2 142.7 236.3 140.5 236.3C138.2 236.3 137.6 238.4 137.6 240.5C137.6 242.4 138.4 244.2 140.6 244.2ZM137.6 235.6C138.3 234.6 139.2 233.4 141.5 233.4C144.4 233.4 146.9 235.6 146.9 240.1C146.9 243.7 145.3 247.1 141.4 247.1C139 247.1 138.2 245.8 137.7 245.1L137.6 251.8H134.2V233.7H137.5V235.6H137.6Z" fill="#231F20"/>
<path d="M157.1 238.9C156.9 236.8 155.5 236.2 154.5 236.2C152.9 236.2 152 237.2 151.8 238.9H157.1ZM160.5 242.9C159.6 246 157 247.1 154.8 247.1C151.1 247.1 148.3 245.3 148.3 240C148.3 238.4 148.8 233.4 154.5 233.4C157.1 233.4 160.6 234.6 160.6 240.6V241.2H151.7C151.8 242.2 152 244.4 154.8 244.4C155.8 244.4 156.7 243.9 157 243H160.5V242.9Z" fill="#231F20"/>
<path d="M168.8 236.2C166.2 236.2 165.7 238.5 165.7 240.2C165.7 241.9 166.2 244.2 168.8 244.2C171.4 244.2 171.9 241.9 171.9 240.2C171.9 238.5 171.5 236.2 168.8 236.2ZM168.8 247C165.3 247 162.1 244.9 162.1 240.2C162.1 235.5 165.3 233.3 168.8 233.3C172.3 233.3 175.5 235.5 175.5 240.2C175.5 244.9 172.3 247 168.8 247Z" fill="#231F20"/>
<path d="M184.1 244.2C186.3 244.2 186.9 241.8 186.9 240.3C186.9 238.2 186.2 236.3 184 236.3C181.7 236.3 181.1 238.4 181.1 240.5C181.1 242.4 181.9 244.2 184.1 244.2ZM181.1 235.6C181.8 234.6 182.7 233.4 185 233.4C187.9 233.4 190.4 235.6 190.4 240.1C190.4 243.7 188.8 247.1 184.9 247.1C182.5 247.1 181.6 245.8 181.2 245.1V251.8H177.8V233.7H181.1V235.6V235.6Z" fill="#231F20"/>
<path d="M196.3 229.1H192.9V246.7H196.3V229.1Z" fill="#231F20"/>
<path d="M207.4 238.9C207.2 236.8 205.9 236.2 204.8 236.2C203.2 236.2 202.3 237.2 202.1 238.9H207.4ZM210.8 242.9C209.9 246 207.3 247.1 205.1 247.1C201.4 247.1 198.6 245.3 198.6 240C198.6 238.4 199.1 233.4 204.8 233.4C207.4 233.4 210.9 234.6 210.9 240.6V241.2H202C202.1 242.2 202.3 244.4 205.1 244.4C206 244.4 207 243.9 207.3 243H210.8V242.9Z" fill="#231F20"/>
<path d="M227.2 240.4C226.8 240.7 226.3 240.9 224.9 241.1C223.6 241.3 222.6 241.6 222.6 243.1C222.6 244.3 223.5 244.7 224.2 244.7C225.7 244.7 227.3 243.7 227.3 242.1V240.4H227.2ZM230.5 244.2C230.5 245.7 230.8 246.1 231.3 246.2V246.7H227.6C227.4 246.1 227.4 245.9 227.3 245.2C226.5 246 225.4 247.1 223.1 247.1C221.1 247.1 219.1 246 219.1 243.3C219.1 240.8 220.7 239.5 222.9 239.1L226 238.6C226.5 238.5 227.2 238.3 227.2 237.6C227.2 236.2 225.8 236.1 224.9 236.1C223.2 236.1 222.9 237.2 222.8 237.9H219.5C219.9 233.9 222.7 233.3 225.3 233.3C227.1 233.3 230.5 233.9 230.5 237.1V244.2Z" fill="#231F20"/>
<path d="M233.6 233.7H236.9V235.9C237.7 234.6 238.4 233.3 240.5 233.3C240.7 233.3 240.9 233.3 241.2 233.4V236.9C240.9 236.9 240.5 236.9 240.2 236.9C237.5 236.9 237 238.6 237 240V246.8H233.6V233.7V233.7Z" fill="#231F20"/>
<path d="M250.9 238.9C250.7 236.8 249.4 236.2 248.3 236.2C246.7 236.2 245.8 237.2 245.6 238.9H250.9ZM254.3 242.9C253.4 246 250.8 247.1 248.6 247.1C244.9 247.1 242.1 245.3 242.1 240C242.1 238.4 242.6 233.4 248.3 233.4C250.9 233.4 254.4 234.6 254.4 240.6V241.2H245.5C245.6 242.2 245.8 244.4 248.5 244.4C249.5 244.4 250.4 243.9 250.7 243H254.3V242.9Z" fill="#231F20"/>
<path d="M269.7 244.2C271.9 244.2 272.5 241.8 272.5 240.3C272.5 238.2 271.8 236.3 269.6 236.3C267.3 236.3 266.7 238.4 266.7 240.5C266.7 242.4 267.6 244.2 269.7 244.2ZM266.7 235.6C267.4 234.6 268.3 233.4 270.6 233.4C273.5 233.4 276 235.6 276 240.1C276 243.7 274.4 247.1 270.5 247.1C268.1 247.1 267.2 245.8 266.8 245.1L266.7 251.8H263.3V233.7H266.6V235.6H266.7Z" fill="#231F20"/>
<path d="M286.3 238.9C286.1 236.8 284.8 236.2 283.6 236.2C282 236.2 281.1 237.2 280.9 238.9H286.3ZM289.6 242.9C288.7 246 286.1 247.1 283.9 247.1C280.2 247.1 277.4 245.3 277.4 240C277.4 238.4 277.9 233.4 283.6 233.4C286.2 233.4 289.7 234.6 289.7 240.6V241.2H280.8C280.9 242.2 281.1 244.4 283.9 244.4C284.9 244.4 285.8 243.9 286.1 243H289.6V242.9Z" fill="#231F20"/>
<path d="M298 236.2C295.4 236.2 294.9 238.5 294.9 240.2C294.9 241.9 295.4 244.2 298 244.2C300.6 244.2 301.1 241.9 301.1 240.2C301.1 238.5 300.6 236.2 298 236.2ZM298 247C294.5 247 291.3 244.9 291.3 240.2C291.3 235.5 294.5 233.3 298 233.3C301.5 233.3 304.7 235.5 304.7 240.2C304.6 244.9 301.5 247 298 247Z" fill="#231F20"/>
<path d="M313.2 244.2C315.4 244.2 316 241.8 316 240.3C316 238.2 315.3 236.3 313.1 236.3C310.8 236.3 310.2 238.4 310.2 240.5C310.2 242.4 311 244.2 313.2 244.2ZM310.2 235.6C310.9 234.6 311.8 233.4 314.1 233.4C317 233.4 319.5 235.6 319.5 240.1C319.5 243.7 317.9 247.1 314 247.1C311.6 247.1 310.7 245.8 310.3 245.1L310.2 251.8H306.8V233.7H310.1V235.6H310.2Z" fill="#231F20"/>
<path d="M325.5 229.1H322.1V246.7H325.5V229.1Z" fill="#231F20"/>
<path d="M336.6 238.9C336.4 236.8 335.1 236.2 334 236.2C332.4 236.2 331.5 237.2 331.3 238.9H336.6ZM339.9 242.9C339 246 336.4 247.1 334.2 247.1C330.5 247.1 327.7 245.3 327.7 240C327.7 238.4 328.2 233.4 333.9 233.4C336.5 233.4 340 234.6 340 240.6V241.2H331.1C331.2 242.2 331.4 244.4 334.2 244.4C335.2 244.4 336.1 243.9 336.4 243H339.9V242.9Z" fill="#231F20"/>
</svg>
